<svg xmlns="http://www.w3.org/2000/svg" fill="#333333" viewBox="0 0 100 125" x="0px" y="0px"><g><path d="M75.746,46.597c-.765,0-1.388,.623-1.388,1.389s.623,1.388,1.388,1.388,1.388-.622,1.388-1.388-.623-1.389-1.388-1.389Z"/><path d="M69.024,72.868c-1.559-.996-3.465-1.253-5.232-.702l-29.514,9.19c-2.631,.819-4.398,3.222-4.398,5.977v1.323l34.881-9.352c2.407-.645,4.743-1.551,6.966-2.673-.384-1.547-1.343-2.893-2.703-3.762Z"/><path d="M31.439,72.657l15.727-4.823c5.598-1.707,9.928-6.308,11.301-12.009,.147-.607,.222-1.23,.222-1.855,0-3.995-3.003-7.329-6.986-7.756l-30.87-3.336c-5.716,5.707-7.118,14.073-4.28,25.542l14.886,4.237Zm-11.067-26.154c.317-.453,.94-.562,1.393-.246,.452,.317,.562,.94,.245,1.393-1.387,1.98-2.282,4.356-2.663,7.062-.07,.5-.499,.861-.989,.861-.046,0-.093-.003-.141-.01-.547-.077-.928-.582-.851-1.129,.424-3.021,1.436-5.689,3.005-7.931Zm-2.246,10.566h.002c.551,0,.999,.446,1,.998,.003,1.394,.115,2.892,.331,4.451,.076,.548-.306,1.053-.854,1.128-.046,.007-.093,.01-.139,.01-.491,0-.92-.362-.989-.862-.229-1.649-.346-3.238-.35-4.723-.001-.552,.445-1.001,.998-1.002Z"/><path d="M75.746,39.652c-4.594,0-8.332,3.738-8.332,8.333s3.738,8.332,8.332,8.332,8.333-3.737,8.333-8.332-3.738-8.333-8.333-8.333Zm0,11.721c-1.868,0-3.388-1.52-3.388-3.388s1.52-3.389,3.388-3.389,3.388,1.521,3.388,3.389-1.52,3.388-3.388,3.388Z"/><path d="M54.58,7.51h-1.34c-18.765,0-34.544,14.388-36.343,32.931l3.583,.387h.011l31.426,3.398c5,.535,8.772,4.725,8.772,9.744,0,.783-.094,1.566-.278,2.326-1.538,6.384-6.389,11.539-12.66,13.45l-16.008,4.91c-.184,.056-.381,.059-.567,.006l-15.031-4.279-7.742,11.872,7.695,10.096,11.781-3.159v-1.859c0-3.636,2.333-6.805,5.804-7.887l29.514-9.19c2.332-.726,4.847-.388,6.904,.927,1.65,1.055,2.842,2.646,3.419,4.482,4.181-2.404,7.8-5.557,10.756-9.404h0c5.144-6.689,7.815-15.037,7.523-23.507-.66-19.434-17.356-35.244-37.22-35.244Zm21.166,50.808c-5.697,0-10.332-4.635-10.332-10.332s4.635-10.333,10.332-10.333,10.333,4.636,10.333,10.333-4.635,10.332-10.333,10.332Z"/></g></svg>