<svg xmlns="http://www.w3.org/2000/svg" xmlns:xlink="http://www.w3.org/1999/xlink" xmlns:sketch="http://www.bohemiancoding.com/sketch/ns" viewBox="0 0 24 30" version="1.1" x="0px" y="0px"><title>quotations</title><desc>Created with Sketch.</desc><g stroke="none" stroke-width="1" fill="none" fill-rule="evenodd" sketch:type="MSPage"><g sketch:type="MSLayerGroup"><path d="M0,0 L24,0 L24,24 L0,24 L0,0 Z" sketch:type="MSShapeGroup"/><path d="M6.33333333,17.7785994 C6.75256147,17.5805334 7.18395165,16.9064145 7.39356572,16.3562313 C7.60317979,15.8060481 7.66023236,15.1023005 7.66000366,14 L3.9996877,14 C3.44757543,14 3,13.5621186 3,12.9970707 L3,8.00292933 C3,7.44902676 3.45303631,7 3.99703014,7 L10.0029699,7 C10.5536144,7 11,7.45195599 11,7.99293277 L11,13.0130492 C11,14.6856061 10.5333333,16.06 9.63374795,17.1513937 C8.73416257,18.2427873 7.50717213,18.7359121 6.33333333,19 L6.33333333,17.7785994 Z" fill="#000000" sketch:type="MSShapeGroup"/><path d="M16.3333333,17.7785994 C16.7525615,17.5805334 17.1839517,16.9064145 17.3935657,16.3562313 C17.6031798,15.8060481 17.6602324,15.1023005 17.6600037,14 L13.9996877,14 C13.4475754,14 13,13.5621186 13,12.9970707 L13,8.00292933 C13,7.44902676 13.4530363,7 13.9970301,7 L20.0029699,7 C20.5536144,7 21,7.45195599 21,7.99293277 L21,13.0130492 C21,14.6856061 20.5333333,16.06 19.6337479,17.1513937 C18.7341626,18.2427873 17.5071721,18.7359121 16.3333333,19 L16.3333333,17.7785994 Z" fill="#000000" sketch:type="MSShapeGroup"/></g></g><text x="0" y="39" fill="#000000" font-size="5px" font-weight="bold" font-family="'Helvetica Neue', Helvetica, Arial-Unicode, Arial, Sans-serif">Created by Ruslan Mirsalikhov</text><text x="0" y="44" fill="#000000" font-size="5px" font-weight="bold" font-family="'Helvetica Neue', Helvetica, Arial-Unicode, Arial, Sans-serif">from the Noun Project</text></svg>