<svg xmlns="http://www.w3.org/2000/svg" data-name="Layer 2" viewBox="0 0 64 80" x="0px" y="0px"><title>transportation-vehicle</title><path d="M11.74,23.4h0L21.16,28l0,0,4.46,2.16h0l.71.34L28,29.31l-6.76-2.55-.62,0h-.09l-.4,0-.24,0-.26,0-.22,0-.34,0c-1.59-.28-2.73-3.22-2.94-3.81a.48.48,0,0,1,.13-.52.37.37,0,0,1,.2-.12l-.5-1-7.71-.38,1,1.46Z"/><path d="M17.73,23.84l.12.21.09.16.13.2.09.16.13.18.1.14.13.15.1.12.14.13a.76.76,0,0,0,.09.09.57.57,0,0,0,.16.11l.07.05a.65.65,0,0,0,.22.08c.34.07,1.26.11,2.1.15l1.25,0h.2l1.24,0h.28l1.21,0H27l-.05-.06a1.67,1.67,0,0,1-.31-.44l0,0a24.35,24.35,0,0,1-5-.57c-1.6-.42-3.15-1-4-1.26l.09.17Z"/><polygon points="18.93 30.78 21.98 32.36 24.45 30.68 21.03 29.02 18.93 30.78"/><path d="M27.63,25.13l.8.88,0,0,3.34.82a.5.5,0,0,1,.17.89l-1,.72h.28L33.84,27l.07,0,.58-.32.09-.05.57-.31.2-.11.49-.26.25-.14.45-.23.29-.15c.13-.08.27-.15.41-.22l.31-.16.39-.19.29-.15.38-.19.29-.14.34-.16.28-.13.32-.15.25-.11.19-.07a.57.57,0,0,1,.08-.13l.06-.11a1.43,1.43,0,0,1,.32-.33L42,22.19,33,20.5a2.56,2.56,0,0,0-1.54.16c-2.64,1.12-3.65,2.44-4,3.36a.86.86,0,0,0,0,.65A1,1,0,0,0,27.63,25.13Z"/><path d="M41.15,24.41a.54.54,0,0,0,.1.24.47.47,0,0,0,.32.18.46.46,0,0,0,.37-.1L44.24,23a.48.48,0,0,1,.62,0l1.06.89.67-.74-2-1.69-3.25,2.47a.42.42,0,0,0-.18.26A.7.7,0,0,0,41.15,24.41Z"/><path d="M26.25,26.87H24.32l4.3,1.62h.61l1.27-.9-2.85-.69h-1.4Z"/><circle cx="12.83" cy="38.84" r="1.87"/><path d="M17.94,40.14l-.1-.08-.13.4A5.19,5.19,0,1,1,17,35.78l2.35-1.6,0-.06.18-.09.36-.24,0,0a8.69,8.69,0,1,0,.8,8.76l-2.73-2.38Z"/><path d="M41.79,38a21.14,21.14,0,0,1,4-6.32,18.64,18.64,0,0,1,8.08-5.09c-1-5.82-6.64-9.36-7.89-10.08L44.21,17.6a9.86,9.86,0,0,1,5,3.63.48.48,0,0,1,0,.61l-2.8,3.09a.5.5,0,0,1-.69.05L44.53,24l-2,1.5a1.41,1.41,0,0,1-.38.21l-.08,0a1.4,1.4,0,0,1-.41.06h0l-.2,0a1.48,1.48,0,0,1-1-.58,1.62,1.62,0,0,1-.19-.37l0-.05-.4.18-.18.08L39,25.4l-.22.12-.48.23-.32.17-.41.21-.34.17c-.13.08-.27.15-.41.22l-.32.17-.42.23-.32.17-.41.22-.3.17-.42.23-.25.13a4.63,4.63,0,0,1-.43.24l-.19.11-.43.24-.14.08-.41.23-.1.06-1,.6a.51.51,0,0,1-.25.06H29.55l-2.84,2a.44.44,0,0,1-.27.09h0a.44.44,0,0,1-.22,0l-.72-.35-3.21,2.19h0L20,34.89h0l-3.7,2.52,2.39,2.08s0,0,0,0l3.63,3.15H42.18l-.41-4.5A.44.44,0,0,1,41.79,38Zm-6.51.69a2.49,2.49,0,0,1-.47,0l-.14,0-.29-.09-.16-.08a1.83,1.83,0,0,1-.24-.13l-.15-.11L33.62,38l-.13-.13a1.56,1.56,0,0,1-.16-.2l-.11-.15c0-.08-.09-.16-.13-.24L33,37.12a1.52,1.52,0,0,1-.09-.28c0-.06,0-.11,0-.16s0,0,0,0l-.08,0a2.79,2.79,0,0,1-.37.14l-.17.05a2.32,2.32,0,0,1-.59.07,2.61,2.61,0,1,1,0-5.21,2.1,2.1,0,0,1,.51.06l.16,0,.31.1a1.51,1.51,0,0,1,.18.09l.26.13.16.13a1.73,1.73,0,0,1,.21.17,1.14,1.14,0,0,1,.15.16,1.2,1.2,0,0,1,.17.21l.12.17.13.24c0,.07.06.14.08.2a2.58,2.58,0,0,1,.08.26,1.89,1.89,0,0,1,.05.23.36.36,0,0,1,0,.11h0a1.63,1.63,0,0,1,.31-.11l.16,0a3,3,0,0,1,.51-.06,2.44,2.44,0,0,1,0,4.88Z"/><path d="M35.28,34.78a1.44,1.44,0,0,0,0,2.88,1.44,1.44,0,0,0,0-2.88Z"/><path d="M31.67,32.71a1.61,1.61,0,1,0,1.61,1.6A1.61,1.61,0,0,0,31.67,32.71Z"/><circle cx="51.22" cy="38.84" r="1.87"/><path d="M51.22,30.15a8.6,8.6,0,0,0-3,.55,12.42,12.42,0,0,0-1.65,1.6,21.92,21.92,0,0,0-3.79,5.89l.34,3.73a8.68,8.68,0,1,0,8.11-11.77Zm0,13.86a5.17,5.17,0,1,1,5.17-5.17A5.18,5.18,0,0,1,51.22,44Z"/><path d="M4.32,33.05A.5.5,0,0,0,5,32.9l3.57-5.57L14,26.49a.5.5,0,0,0,.42-.57.49.49,0,0,0-.57-.41l-5.69.87a.47.47,0,0,0-.34.22L4.17,32.35A.51.51,0,0,0,4.32,33.05Z"/></svg>